# xmcd
# 
# Track frame offsets:
#     150
#     35993
#     65020
#     108318
#     153320
#     189742
#     227274
#     247373
#     262305
#     307509
# 
# Disc length: 4708
# 
# Revision: 6
# Processed by: cddbd v1.5.2PL0 Copyright (c) Steve Scherf et al.
# Submitted via: fre:ac v1.0.17
# 
DISCID=8b12620a
DTITLE=Noah Gordon - Der Katalane
DYEAR=2008
DGENRE=Hörbuch
TTITLE0=Der Katalane 51
TTITLE1=Der Katalane 52
TTITLE2=Der Katalane 53
TTITLE3=Der Katalane 54
TTITLE4=Der Katalane 55
TTITLE5=Der Katalane 56
TTITLE6=Der Katalane 57
TTITLE7=Der Katalane 58
TTITLE8=Der Katalane 59
TTITLE9=Der Katalane 60
EXTD=gelesen v. Christian Brückner\nca. 420 min YEAR: 2008
EXTT0=
EXTT1=
EXTT2=
EXTT3=
EXTT4=
EXTT5=
EXTT6=
EXTT7=
EXTT8=
EXTT9=
PLAYORDER=
